<svg xmlns="http://www.w3.org/2000/svg" viewBox="0 0 120 120" id="arrow-right"><path fill="#30aadd" d="M99.9 59.3c0-.3-.1-.5-.1-.7 0-.2-.1-.5-.2-.7-.1-.2-.2-.5-.3-.7-.1-.2-.2-.5-.3-.7-.1-.2-.2-.4-.4-.6-.1-.2-.3-.5-.5-.7-.1-.1-.1-.2-.2-.3L70.7 24.3c-2.9-3.2-7.8-3.5-11.1-.6-3.2 2.9-3.5 7.8-.6 11.1L81.6 60 59 85.3c-2.9 3.2-2.6 8.2.6 11.1 1.5 1.3 3.4 2 5.2 2 2.2 0 4.3-.9 5.8-2.6L98 65.2c.1-.1.1-.2.2-.3.2-.2.3-.4.5-.7.1-.2.3-.4.4-.6.1-.2.2-.5.3-.7.1-.2.2-.5.3-.7.1-.2.1-.5.2-.7 0-.2.1-.5.1-.7v-.7c-.1-.4-.1-.6-.1-.8z"></path><path fill="#30aadd" d="M61.2 64.9c.2-.2.3-.4.5-.7.1-.2.3-.4.4-.6.1-.2.2-.5.3-.7.1-.2.2-.5.3-.7.1-.2.1-.5.2-.7 0-.2.1-.5.1-.7v-1.4c0-.3-.1-.5-.1-.7 0-.2-.1-.5-.2-.7-.1-.2-.2-.5-.3-.7-.1-.2-.2-.5-.3-.7-.1-.2-.2-.4-.4-.6-.1-.2-.3-.5-.5-.7-.1-.1-.1-.2-.2-.3L33.7 24.3c-2.9-3.2-7.8-3.5-11.1-.6-3.2 2.9-3.5 7.8-.6 11.1L44.7 60 22 85.3c-2.9 3.2-2.6 8.2.6 11.1 1.5 1.3 3.4 2 5.2 2 2.2 0 4.3-.9 5.8-2.6L61 65.2c.1-.1.1-.2.2-.3z"></path></svg>